HIERARCHY
ROOT Hips
{
	OFFSET 0.000000 0.000000 0.000000
	CHANNELS 6 Xposition Yposition Zposition Zrotation Yrotation Xrotation
	JOINT Spine1
	{
		OFFSET 0.000000 -0.000001 5.553894
		CHANNELS 6 Xposition Yposition Zposition Zrotation Yrotation Xrotation
		JOINT Neck
		{
			OFFSET 0.000000 -0.000001 4.427760
			CHANNELS 6 Xposition Yposition Zposition Zrotation Yrotation Xrotation
			JOINT Head
			{
				OFFSET 0.000000 -0.363272 2.815360
				CHANNELS 6 Xposition Yposition Zposition Zrotation Yrotation Xrotation
				End Site
				{
					OFFSET 0.000000 -0.000001 3.632711
				}
			}
		}
		JOINT LeftShoulder
		{
			OFFSET 0.731534 0.096024 3.575179
			CHANNELS 6 Xposition Yposition Zposition Zrotation Yrotation Xrotation
			JOINT LeftArm
			{
				OFFSET 2.610320 0.000000 0.000000
				CHANNELS 6 Xposition Yposition Zposition Zrotation Yrotation Xrotation
				JOINT LeftForeArm
				{
					OFFSET 5.118420 0.000000 0.000000
					CHANNELS 6 Xposition Yposition Zposition Zrotation Yrotation Xrotation
					JOINT LeftHand
					{
						OFFSET 4.756899 0.000000 0.000000
						CHANNELS 6 Xposition Yposition Zposition Zrotation Yrotation Xrotation
						End Site
						{
							OFFSET 2.724534 0.000000 0.000000
						}
					}
				}
			}
		}
		JOINT RightShoulder
		{
			OFFSET -0.721442 0.096024 3.575179
			CHANNELS 6 Xposition Yposition Zposition Zrotation Yrotation Xrotation
			JOINT RightArm
			{
				OFFSET -2.610320 0.000000 0.000000
				CHANNELS 6 Xposition Yposition Zposition Zrotation Yrotation Xrotation
				JOINT RightForeArm
				{
					OFFSET -5.118420 0.000000 0.000000
					CHANNELS 6 Xposition Yposition Zposition Zrotation Yrotation Xrotation
					JOINT RightHand
					{
						OFFSET -4.756900 0.000000 0.000000
						CHANNELS 6 Xposition Yposition Zposition Zrotation Yrotation Xrotation
						End Site
						{
							OFFSET -2.724534 0.000000 0.000000
						}
					}
				}
			}
		}
	}
	JOINT LeftUpLeg
	{
		OFFSET 1.816360 0.000000 0.000000
		CHANNELS 6 Xposition Yposition Zposition Zrotation Yrotation Xrotation
		JOINT LeftLeg
		{
			OFFSET 0.000000 0.000001 -7.638980
			CHANNELS 6 Xposition Yposition Zposition Zrotation Yrotation Xrotation
			JOINT LeftFoot
			{
				OFFSET 0.000000 0.000001 -8.008600
				CHANNELS 6 Xposition Yposition Zposition Zrotation Yrotation Xrotation
				JOINT LeftToeBase
				{
					OFFSET 0.000000 -2.724540 -1.180634
					CHANNELS 6 Xposition Yposition Zposition Zrotation Yrotation Xrotation
					End Site
					{
						OFFSET 0.000000 -0.726542 0.000000
					}
				}
			}
		}
	}
	JOINT RightUpLeg
	{
		OFFSET -1.816360 0.000000 0.000000
		CHANNELS 6 Xposition Yposition Zposition Zrotation Yrotation Xrotation
		JOINT RightLeg
		{
			OFFSET 0.000000 0.000001 -7.638980
			CHANNELS 6 Xposition Yposition Zposition Zrotation Yrotation Xrotation
			JOINT RightFoot
			{
				OFFSET 0.000000 0.000001 -8.008600
				CHANNELS 6 Xposition Yposition Zposition Zrotation Yrotation Xrotation
				JOINT RightToeBase
				{
					OFFSET 0.000000 -2.724540 -1.180634
					CHANNELS 6 Xposition Yposition Zposition Zrotation Yrotation Xrotation
					End Site
					{
						OFFSET 0.000000 -0.726542 0.000000
					}
				}
			}
		}
	}
}
MOTION
Frames: 5
Frame Time: 0.041667
-0.673611 -0.372076 14.927923 -0.218261 -2.243392 17.809343 -0.000000 -0.000000 5.553895 -1.298421 -8.167889 -20.005404 0.000000 -0.000001 4.427762 1.859640 2.415528 13.498253 0.000000 -0.363272 2.815358 2.275675 5.693047 5.314367 0.731534 0.096024 3.575177 3.398257 -18.106777 -8.593060 2.610321 -0.000001 -0.000002 -12.542585 4.133937 -10.710798 5.118421 0.000000 0.000002 1.881140 3.159766 -4.457125 4.756898 -0.000001 0.000002 18.530325 -2.267327 -4.878839 -0.721442 0.096024 3.575180 -4.925722 14.444493 -1.130448 -2.610320 -0.000000 0.000000 15.331698 -25.190506 20.907195 -5.118419 -0.000001 -0.000000 103.683774 28.812368 44.873049 -4.756900 0.000001 -0.000001 -2.284955 31.758372 8.011616 1.816360 0.000001 0.000002 26.238066 -11.200621 -39.181988 0.000000 0.000002 -7.638980 17.017717 2.942338 34.017839 0.000000 0.000001 -8.008601 17.817971 6.396366 3.364575 -0.000000 -2.724539 -1.180634 -0.000002 0.000000 -0.000001 -1.816360 0.000000 0.000000 -4.730277 32.604465 -30.939384 0.000001 0.000002 -7.638980 -28.604069 -13.234624 31.711049 0.000000 0.000001 -8.008599 -25.781654 -12.160755 -4.279909 0.000000 -2.724541 -1.180634 0.000004 0.000001 0.000002 
-0.673369 -0.376156 14.929134 -0.168249 -2.230027 17.773016 0.000000 0.000001 5.553892 -1.337835 -8.181280 -19.978204 0.000000 -0.000001 4.427760 1.869736 2.419552 13.496088 0.000000 -0.363273 2.815359 2.291440 5.710309 5.378182 0.731534 0.096024 3.575179 3.387950 -18.112309 -8.602625 2.610320 -0.000000 0.000004 -12.565226 4.165312 -10.762233 5.118420 -0.000000 -0.000001 1.907121 3.166306 -4.436522 4.756898 -0.000000 -0.000000 18.519040 -2.260130 -4.857664 -0.721441 0.096024 3.575181 -4.931514 14.449695 -1.120740 -2.610321 -0.000000 0.000002 15.346610 -25.226067 20.853461 -5.118418 -0.000000 -0.000001 103.671487 28.757207 44.824913 -4.756900 -0.000001 -0.000001 -2.230015 31.810718 8.052872 1.816360 0.000001 -0.000002 26.198314 -11.239173 -39.146970 0.000000 0.000002 -7.638980 17.014104 2.944422 33.997239 0.000000 0.000001 -8.008598 17.807751 6.400129 3.373674 0.000000 -2.724539 -1.180635 0.000001 0.000001 -0.000000 -1.816360 0.000001 -0.000002 -4.707883 32.584070 -30.841019 -0.000000 0.000001 -7.638982 -28.585409 -13.244712 31.672943 0.000000 0.000001 -8.008599 -25.806791 -12.181253 -4.275237 0.000001 -2.724539 -1.180633 0.000003 -0.000000 -0.000002 
-0.672866 -0.377736 14.930073 -0.157013 -2.221738 17.770730 0.000000 -0.000000 5.553895 -1.337429 -8.172811 -19.983976 0.000000 -0.000001 4.427763 1.869305 2.395078 13.488136 -0.000000 -0.363272 2.815361 2.312721 5.774569 5.448835 0.731534 0.096024 3.575179 3.378573 -18.126765 -8.608034 2.610319 -0.000001 -0.000001 -12.589797 4.202954 -10.794264 5.118421 -0.000001 -0.000001 1.930555 3.158088 -4.405093 4.756902 0.000001 0.000000 18.516908 -2.261093 -4.826857 -0.721443 0.096024 3.575181 -4.932049 14.436254 -1.125769 -2.610320 -0.000000 -0.000000 15.351298 -25.259795 20.821746 -5.118419 -0.000001 0.000003 103.668003 28.712742 44.818021 -4.756901 0.000001 0.000001 -2.162721 31.754123 8.122639 1.816360 0.000001 0.000001 26.249701 -11.200145 -39.156795 -0.000000 0.000001 -7.638978 16.948064 2.934292 33.999176 0.000000 0.000000 -8.008599 17.794810 6.402111 3.376467 0.000000 -2.724539 -1.180633 -0.000001 -0.000001 -0.000001 -1.816360 0.000001 0.000001 -4.700783 32.567899 -30.827697 0.000001 0.000001 -7.638980 -28.557531 -13.235713 31.666861 -0.000001 0.000001 -8.008601 -25.811486 -12.223844 -4.272404 0.000000 -2.724540 -1.180633 0.000002 0.000000 -0.000001 
-0.672244 -0.379411 14.931113 -0.140614 -2.219586 17.771141 0.000000 -0.000001 5.553895 -1.342912 -8.178573 -19.985586 -0.000000 -0.000001 4.427762 1.888569 2.416547 13.475257 -0.000000 -0.363271 2.815358 2.332776 5.787134 5.511035 0.731533 0.096024 3.575177 3.341426 -18.118390 -8.609686 2.610320 -0.000000 0.000004 -12.593818 4.221179 -10.863687 5.118420 0.000001 -0.000001 1.957258 3.180487 -4.376205 4.756899 0.000001 0.000003 18.497809 -2.281312 -4.802001 -0.721442 0.096024 3.575179 -4.944914 14.448690 -1.127581 -2.610320 -0.000000 0.000003 15.348176 -25.278062 20.715783 -5.118419 -0.000000 0.000005 103.664199 28.590021 44.735755 -4.756904 0.000001 0.000004 -2.121441 31.764700 8.204790 1.816360 0.000000 0.000001 26.234962 -11.202007 -39.151525 -0.000000 0.000002 -7.638982 16.945747 2.933663 33.993623 0.000000 0.000001 -8.008599 17.792487 6.356418 3.380171 0.000000 -2.724540 -1.180634 -0.000002 -0.000000 0.000001 -1.816360 -0.000000 0.000001 -4.694927 32.559239 -30.809204 -0.000001 0.000002 -7.638982 -28.570519 -13.220898 31.655164 -0.000000 0.000001 -8.008599 -25.820926 -12.213529 -4.258638 0.000000 -2.724539 -1.180634 0.000004 0.000000 -0.000000 
-0.672147 -0.381575 14.932430 -0.135000 -2.221862 17.762173 -0.000000 -0.000001 5.553893 -1.331565 -8.166510 -19.982075 0.000000 -0.000001 4.427763 1.879914 2.421228 13.469755 0.000000 -0.363272 2.815362 2.332468 5.828130 5.550095 0.731534 0.096024 3.575180 3.339522 -18.143272 -8.606371 2.610319 -0.000001 -0.000003 -12.643126 4.272488 -10.910043 5.118421 -0.000000 0.000001 1.979559 3.197696 -4.343881 4.756899 -0.000001 -0.000000 18.507400 -2.278276 -4.770296 -0.721442 0.096024 3.575183 -4.974959 14.449455 -1.134828 -2.610321 -0.000000 -0.000003 15.348750 -25.304329 20.739024 -5.118419 0.000000 0.000005 103.686616 28.598794 44.781316 -4.756901 0.000001 0.000001 -2.113675 31.748137 8.228499 1.816360 0.000000 -0.000000 26.233817 -11.193839 -39.127791 -0.000000 0.000001 -7.638982 16.941531 2.920484 33.970448 0.000000 0.000001 -8.008599 17.779899 6.370790 3.402457 -0.000000 -2.724539 -1.180633 0.000001 0.000000 -0.000003 -1.816360 0.000000 -0.000001 -4.690419 32.550574 -30.797439 0.000000 0.000002 -7.638981 -28.575814 -13.200192 31.659085 -0.000000 0.000001 -8.008599 -25.837706 -12.176322 -4.232432 -0.000000 -2.724539 -1.180633 -0.000000 0.000001 -0.000001 
